<svg xmlns="http://www.w3.org/2000/svg" xmlns:xlink="http://www.w3.org/1999/xlink" viewBox="0 0 48 48"><path fill="#ede7f6" d="M24,4C13,4,4,13,4,24s9,20,20,20s20-9,20-20S35,4,24,4z"/><path fill="#3e2723" d="M18,18.3h12v13.5H18V18.3z"/><path fill="#ff1744" d="M24,44c4.5,0,8.6-1.5,11.9-4c0,0,0,0,0,0c-0.6-7.4-7.9-9-7.9-9h-8c0,0-7.3,1.6-7.9,9c0,0,0,0,0,0C15.4,42.5,19.5,44,24,44z"/><path fill="#ffb74d" d="M20.5,26v5c0,0,0.6,5,3.5,5s3.5-5,3.5-5v-5H20.5z"/><path fill="#ff9800" d="M20.5,26v5c0,0,1.9,3,3.5,3s3.5-3,3.5-3v-5H20.5z"/><path fill="#ffb74d" d="M31,23c0,3.7-3.3,7-7,7s-7-3.3-7-7v-6c0-3.7,14-5.7,14,0V23z"/><path fill="#784719" d="M26,22c0-0.6,0.4-1,1-1s1,0.4,1,1s-0.4,1-1,1S26,22.6,26,22"/><path fill="#784719" d="M20,22c0,0.6,0.4,1,1,1s1-0.4,1-1s-0.4-1-1-1S20,21.4,20,22"/><path fill="#795548" d="M24,11c-4.6,0-11,2.1-11,17l5,3.8V21l9-5l3,4v12l5-5c0-3-0.3-14.5-8-14.5L26,11H24z"/></svg>