<?xml version="1.0" standalone="no"?>
<!DOCTYPE svg PUBLIC "-//W3C//DTD SVG 20010904//EN"
 "http://www.w3.org/TR/2001/REC-SVG-20010904/DTD/svg10.dtd">
<svg version="1.0" xmlns="http://www.w3.org/2000/svg"
 width="700.000000pt" height="700.000000pt" viewBox="0 0 700.000000 700.000000"
 preserveAspectRatio="xMidYMid meet">
<metadata>
Created by potrace 1.14, written by Peter Selinger 2001-2017
</metadata>
<g transform="translate(0.000000,700.000000) scale(0.100000,-0.100000)"
fill="#000000" stroke="none">
<path d="M3215 6639 c-1054 -93 -2004 -725 -2503 -1669 -533 -1007 -473 -2256
155 -3202 124 -187 231 -317 408 -493 177 -177 304 -283 489 -405 1040 -692
2417 -693 3467 -4 175 115 322 236 494 409 289 289 493 581 650 933 679 1519
65 3302 -1405 4080 -528 280 -1149 403 -1755 351z m680 -64 c890 -120 1676
-606 2174 -1345 275 -408 438 -841 507 -1345 25 -182 25 -588 0 -770 -126
-924 -612 -1699 -1386 -2211 -381 -251 -824 -414 -1305 -480 -179 -25 -587
-25 -768 -1 -697 93 -1318 398 -1807 887 -489 489 -794 1110 -887 1807 -23
178 -23 588 0 766 93 695 400 1319 887 1807 530 529 1216 843 1975 904 108 8
495 -4 610 -19z"/>
<path d="M3650 6392 c-59 -59 -36 -121 73 -196 30 -21 60 -49 66 -62 9 -22 8
-28 -15 -51 -20 -20 -32 -24 -57 -19 -39 7 -87 58 -87 91 0 38 -17 30 -24 -12
-9 -55 -7 -103 3 -103 5 0 11 5 13 10 2 7 19 5 47 -5 55 -19 94 -19 131 0 37
19 50 43 50 90 0 52 -9 64 -94 124 -41 29 -77 60 -81 69 -10 26 22 62 56 62
39 0 89 -48 89 -84 0 -29 14 -35 24 -10 3 9 6 37 6 63 0 45 -2 48 -27 49 -16
1 -54 4 -85 8 -54 5 -59 4 -88 -24z"/>
<path d="M3123 6403 c-38 -5 -45 -23 -9 -23 15 0 27 -7 30 -17 9 -32 28 -284
22 -299 -3 -9 -20 -14 -45 -14 -47 0 -58 11 -181 188 -47 66 -90 121 -95 122
-6 0 -16 -33 -23 -72 -40 -234 -55 -301 -73 -316 -11 -9 -19 -20 -19 -25 0 -9
13 -7 93 14 38 10 42 29 6 29 -14 0 -19 7 -19 28 0 59 8 69 68 81 76 15 74 15
102 -25 23 -35 24 -37 5 -50 -32 -24 -8 -28 72 -11 43 9 139 21 213 27 74 6
138 14 141 18 11 12 27 102 18 102 -5 0 -15 -13 -24 -30 -19 -37 -37 -46 -107
-55 -68 -9 -63 -19 -78 164 -12 142 -11 150 33 151 9 0 17 5 17 10 0 10 -80
11 -147 3z m-210 -264 c-10 -3 -33 -10 -50 -13 -38 -9 -39 -5 -22 74 l11 51
39 -53 c35 -46 37 -53 22 -59z"/>
<path d="M3956 6382 c-9 -14 -18 -82 -11 -82 4 0 16 11 27 25 17 22 25 25 56
19 21 -4 38 -8 40 -9 3 -3 -58 -286 -64 -296 -3 -5 -16 -9 -30 -9 -13 0 -24
-4 -24 -9 0 -12 149 -46 158 -36 4 4 3 9 -3 12 -38 14 -38 16 -6 168 17 82 33
150 35 152 2 2 19 0 37 -4 24 -6 38 -18 48 -41 8 -18 18 -32 21 -32 7 0 22 82
16 87 -2 3 -277 63 -287 63 -4 0 -10 -3 -13 -8z"/>
<path d="M2496 6249 c-71 -27 -131 -51 -134 -54 -8 -8 18 -85 28 -85 6 0 10
14 10 30 0 25 6 33 35 47 22 10 39 13 44 7 12 -13 101 -256 101 -276 0 -9 -9
-20 -21 -23 -13 -4 -17 -11 -12 -16 12 -12 153 38 153 53 0 6 -9 8 -20 5 -14
-4 -25 2 -35 16 -10 17 -105 262 -105 274 0 1 18 8 40 14 37 11 42 10 65 -11
14 -13 27 -21 30 -18 8 8 -27 88 -39 87 -6 0 -69 -23 -140 -50z"/>
<path d="M4317 6130 c-81 -89 -135 -140 -147 -140 -38 0 -20 -19 35 -36 53
-17 87 -12 52 7 -24 14 -21 31 11 62 l28 27 61 -21 c56 -19 61 -22 66 -55 7
-44 0 -64 -24 -64 -40 0 -16 -20 51 -41 74 -24 97 -21 61 8 -20 17 -22 33 -33
206 -7 120 -15 187 -22 187 -6 0 -69 -63 -139 -140z m101 -54 l-3 -33 -49 17
-50 16 44 48 44 48 9 -32 c4 -18 7 -47 5 -64z"/>
<path d="M4621 6166 c-22 -35 -27 -56 -12 -56 5 0 14 7 21 15 18 21 65 17 98
-10 1 -1 -27 -64 -63 -140 -65 -137 -65 -137 -95 -132 -51 11 -33 -11 41 -49
74 -37 95 -38 64 -4 -18 19 -16 23 46 155 43 90 69 135 80 135 9 0 28 -11 44
-25 20 -20 25 -32 21 -50 -10 -38 13 -30 30 11 8 20 14 40 12 44 -2 5 -62 38
-135 74 l-132 65 -20 -33z"/>
<path d="M2236 6142 c-55 -30 -71 -52 -32 -45 27 6 47 -19 105 -134 l31 -62
-48 20 c-26 11 -95 40 -154 65 l-107 44 -46 -22 c-56 -27 -58 -43 -4 -43 l41
0 64 -115 c65 -118 75 -153 48 -164 -8 -3 -12 -10 -9 -16 7 -11 125 45 125 59
0 5 -14 8 -31 7 -29 -1 -33 4 -84 99 -30 54 -53 100 -51 102 1 1 76 -28 167
-66 90 -38 167 -67 172 -64 4 2 -13 44 -39 91 -131 244 -120 218 -101 239 36
41 20 42 -47 5z"/>
<path d="M4960 6020 c0 -5 8 -13 17 -18 23 -13 10 -41 -80 -172 -65 -94 -75
-105 -100 -102 -15 1 -27 -1 -27 -5 0 -7 74 -58 210 -145 26 -18 27 -17 68 14
49 37 42 55 -12 33 -36 -15 -38 -15 -91 15 -30 17 -57 35 -60 40 -7 11 64 120
77 120 12 0 70 -40 80 -54 4 -6 5 -21 1 -33 -9 -38 13 -26 46 25 35 56 42 85
13 59 -10 -10 -24 -17 -31 -17 -12 0 -91 49 -91 57 0 4 54 87 66 102 2 2 29
-13 60 -33 54 -36 56 -39 51 -72 -3 -19 -2 -34 3 -34 14 0 53 71 44 80 -19 17
-226 150 -235 150 -5 0 -9 -4 -9 -10z"/>
<path d="M3550 6000 c-25 -25 -25 -36 -1 -81 24 -44 17 -57 -34 -61 -36 -3
-40 -6 -43 -32 -6 -49 -31 -78 -61 -71 -16 3 -34 0 -46 -9 -11 -9 -30 -16 -42
-16 -12 0 -25 -5 -28 -10 -3 -6 -17 -7 -30 -4 -37 9 -62 -12 -91 -76 -26 -59
-26 -59 -83 -70 -868 -170 -1546 -880 -1675 -1753 -9 -57 -16 -119 -16 -136 0
-20 -11 -46 -27 -68 -21 -28 -28 -48 -28 -83 l0 -47 -32 14 c-18 7 -44 13 -58
13 -32 0 -33 -27 -4 -80 25 -44 65 -70 108 -70 26 0 31 -4 31 -25 0 -23 -2
-24 -47 -18 -56 6 -132 -11 -140 -33 -17 -46 88 -111 164 -100 38 5 43 3 43
-13 0 -17 -4 -18 -36 -10 -46 13 -154 -9 -154 -31 0 -45 66 -80 149 -80 58 0
61 -1 67 -27 3 -16 7 -34 10 -40 2 -9 -12 -13 -51 -13 -45 0 -60 -5 -97 -33
-58 -44 -59 -60 -5 -91 52 -31 99 -33 149 -7 l37 18 5 -23 c3 -12 8 -29 12
-37 4 -11 -7 -15 -50 -19 -56 -5 -132 -45 -144 -77 -8 -21 51 -69 95 -77 35
-7 64 0 134 30 12 5 19 -1 27 -23 11 -30 10 -31 -21 -31 -43 -1 -106 -31 -141
-68 -23 -25 -27 -34 -17 -46 39 -47 150 -60 214 -26 l37 20 25 -50 25 -49 -38
-7 c-55 -9 -119 -50 -149 -95 -14 -22 -24 -41 -22 -42 48 -34 70 -42 126 -42
54 0 67 4 109 34 l48 33 19 -23 19 -24 -36 -7 c-72 -15 -143 -65 -172 -120
-13 -26 -13 -26 33 -42 84 -29 170 -16 225 33 l31 28 27 -31 28 -30 -37 -17
c-43 -20 -81 -59 -110 -114 l-21 -40 23 -8 c32 -13 127 -4 166 16 l33 17 -40
-44 c-40 -43 -72 -95 -72 -116 0 -15 109 -12 169 6 29 8 69 30 90 49 26 23 41
31 48 24 7 -7 -9 -30 -51 -72 -74 -75 -97 -114 -76 -127 39 -25 180 0 224 39
10 9 -4 -15 -33 -52 -67 -89 -66 -97 7 -97 82 0 152 23 203 68 24 22 50 37 57
35 7 -3 -4 -17 -28 -34 -38 -27 -120 -139 -120 -162 0 -6 25 -8 66 -4 77 7
170 46 210 88 15 16 36 29 46 29 26 0 22 -14 -8 -31 -43 -23 -91 -104 -109
-182 l-6 -29 43 7 c95 15 203 84 228 145 13 32 18 34 37 22 8 -5 2 -16 -22
-35 -33 -26 -77 -105 -89 -159 -8 -34 9 -36 81 -12 70 24 129 68 159 119 23
40 29 44 52 39 38 -9 38 -10 4 -39 -33 -28 -76 -109 -87 -164 l-7 -34 50 6
c28 3 68 15 90 26 48 25 109 93 117 132 5 22 12 29 30 29 l24 0 -24 -24 c-33
-33 -61 -93 -69 -149 -7 -46 -7 -47 19 -47 48 0 137 55 182 113 20 26 22 27
28 8 10 -33 54 -61 96 -61 41 0 99 39 99 67 0 10 8 5 22 -13 33 -42 57 -61
110 -89 62 -33 98 -33 98 -2 0 44 -29 120 -60 158 -28 35 -29 39 -11 39 13 0
23 -11 31 -36 26 -78 108 -140 202 -151 l51 -6 -7 39 c-11 56 -46 122 -83 154
-35 31 -34 33 10 44 20 5 27 3 27 -9 0 -8 24 -40 53 -69 51 -53 136 -96 188
-96 18 0 20 4 14 32 -12 56 -45 115 -85 152 -31 28 -35 36 -22 41 9 3 18 1 20
-5 14 -40 74 -98 132 -127 76 -36 150 -52 150 -31 0 58 -62 167 -112 198 -26
16 -29 20 -15 26 12 4 30 -5 56 -29 21 -19 64 -44 96 -56 70 -26 175 -39 175
-22 0 23 -67 117 -109 153 -26 22 -37 38 -29 40 7 3 21 -6 31 -19 34 -43 114
-76 200 -81 68 -4 77 -3 77 13 0 24 -63 107 -113 150 -22 19 -36 35 -31 35 6
0 21 -12 35 -26 51 -55 169 -89 244 -70 l26 7 -23 41 c-13 22 -49 65 -81 94
-43 40 -54 56 -43 60 9 3 32 -8 54 -26 50 -39 117 -60 199 -60 l64 0 -17 33
c-9 17 -32 53 -51 79 l-34 48 35 -15 c38 -16 133 -20 154 -6 29 18 -56 132
-120 161 l-38 17 29 27 29 27 44 -31 c34 -24 59 -33 104 -36 61 -5 145 13 151
32 4 13 -71 100 -101 116 -11 6 -42 17 -68 22 l-47 11 18 24 18 23 42 -30 c66
-48 166 -52 225 -9 17 12 17 16 3 43 -28 54 -89 96 -159 109 l-36 7 26 46 c14
26 26 48 28 50 1 2 17 -6 35 -17 50 -31 130 -28 186 5 41 24 43 27 31 46 -27
40 -92 78 -144 84 l-51 6 11 29 c12 34 11 34 61 9 49 -25 95 -25 144 -1 53 28
67 46 50 68 -32 39 -102 73 -150 73 l-46 0 10 38 10 39 38 -19 c48 -23 95 -23
139 0 52 29 59 46 30 78 -36 38 -73 54 -126 54 l-46 0 6 31 c3 17 6 35 6 40 0
5 27 9 60 9 33 0 76 6 94 14 30 13 66 49 66 68 0 4 -25 15 -55 23 -43 13 -66
14 -101 7 -38 -8 -45 -8 -42 6 2 11 18 15 65 16 53 2 68 7 99 32 20 16 41 40
45 52 7 19 4 25 -19 35 -15 6 -60 12 -100 12 -68 0 -72 1 -72 23 0 18 6 22 30
22 63 0 117 50 134 124 l7 29 -43 -6 c-24 -2 -51 -8 -60 -12 -15 -6 -18 -1
-18 29 0 40 -19 84 -44 105 -9 8 -16 29 -16 48 0 20 -7 83 -16 140 -105 711
-582 1330 -1244 1616 -99 42 -258 97 -325 111 -30 6 -30 8 -30 64 0 56 0 57
-39 75 l-38 18 7 55 c8 63 -4 90 -83 181 -44 52 -49 54 -87 51 -25 -3 -55 2
-80 14 -52 23 -90 23 -115 -2z m109 -71 c25 -9 38 -9 56 1 36 19 83 -13 117
-79 23 -44 28 -66 28 -126 0 -71 0 -72 40 -108 45 -40 51 -69 18 -92 -51 -36
-182 -121 -206 -134 -43 -22 -62 -43 -62 -66 0 -49 72 -93 99 -61 11 13 9 22
-8 52 -24 41 -20 50 26 63 46 13 73 -9 73 -60 0 -22 4 -49 10 -59 18 -33 150
-61 190 -40 22 12 23 11 16 -21 -3 -18 -9 -58 -12 -88 -6 -59 -50 -218 -67
-238 -13 -18 -38 -16 -31 1 8 20 -8 26 -49 19 -32 -5 -36 -8 -31 -29 5 -18 0
-26 -25 -39 -32 -16 -40 -42 -20 -62 17 -17 -37 -79 -83 -98 -66 -26 -42 -71
47 -89 32 -6 60 -17 63 -24 5 -16 -590 -17 -637 -1 -30 10 -35 19 -43 74 -4
21 -15 22 -103 10 -50 -7 -89 12 -93 45 l-4 25 26 -24 c33 -31 60 -22 49 16
-5 16 -8 46 -7 67 0 34 6 45 44 77 26 22 57 39 75 41 25 3 30 8 33 34 2 21 -4
38 -23 58 -34 36 -78 124 -71 142 11 27 26 13 26 -23 0 -33 6 -43 47 -76 69
-56 111 -39 54 22 -32 35 -27 39 17 14 28 -16 31 -16 56 1 15 9 26 23 24 29
-2 7 -27 23 -55 37 -59 28 -69 46 -20 35 17 -3 48 -7 67 -8 32 -2 36 1 46 33
12 38 40 52 50 25 4 -10 -3 -26 -17 -41 -26 -28 -20 -38 31 -51 28 -7 36 -15
38 -37 3 -22 0 -27 -15 -24 -10 2 -22 13 -28 26 -14 33 -39 23 -43 -16 -3 -31
-5 -33 -33 -27 -37 8 -39 -12 -3 -54 26 -32 29 -69 3 -62 -48 13 -69 12 -75
-4 -4 -10 0 -23 10 -33 13 -14 38 -17 129 -18 62 -1 129 -6 149 -13 45 -15 64
-6 102 44 31 41 27 55 -16 55 -17 0 -46 9 -64 21 -49 30 -59 89 -15 89 28 0
41 21 41 68 0 29 -7 53 -21 70 -20 26 -20 27 -1 35 24 11 33 38 20 61 -13 23
-22 20 -35 -14 -20 -53 -40 -34 -43 40 -3 55 -2 59 30 75 34 18 38 43 13 74
-25 29 -77 16 -80 -20 0 -13 -1 -31 -2 -40 -2 -24 -80 -60 -104 -48 -31 17
-46 3 -63 -60 -10 -33 -21 -58 -25 -56 -4 3 -15 29 -25 58 -21 65 -30 77 -60
77 -53 0 -58 76 -10 144 19 27 39 68 45 92 14 55 26 61 47 24 10 -16 25 -30
33 -30 19 0 61 39 61 57 0 9 16 13 54 13 70 0 86 7 86 36 0 21 2 23 19 12 24
-15 73 4 101 40 32 39 26 85 -16 132 -31 34 -33 40 -17 40 11 0 35 -5 52 -11z
m-807 -635 c192 -107 201 -113 189 -132 -5 -9 -57 15 -197 94 -104 58 -191
108 -194 110 -3 4 18 23 27 24 1 0 80 -43 175 -96z m1482 90 c9 -3 16 -10 16
-14 0 -14 -218 -130 -234 -124 -9 3 -16 9 -16 13 0 5 194 122 217 130 1 1 8
-2 17 -5z m-1619 -285 c259 -57 373 -86 382 -98 6 -9 8 -17 4 -19 -8 -2 -768
163 -801 174 -13 5 -12 8 3 19 11 8 24 12 30 10 7 -2 178 -41 382 -86z m1989
61 c-11 -9 -614 -143 -620 -138 -2 3 2 12 9 21 17 24 574 148 601 135 10 -6
14 -13 10 -18z m-1654 -279 c-39 -20 -11 -18 -698 -52 -233 -11 -426 -18 -430
-15 -24 25 41 32 536 57 284 15 542 27 572 27 l55 1 -35 -18z m1550 -12 c347
-16 458 -24 469 -35 8 -7 12 -16 9 -19 -6 -6 -833 30 -955 41 -45 4 -63 10
-63 20 0 18 -2 18 540 -7z m54 -322 c693 -228 777 -260 754 -282 -4 -4 -104
29 -1036 335 -415 136 -491 164 -481 176 6 8 14 14 18 14 3 0 338 -110 745
-243z m-1731 170 c-4 -20 -69 -43 -666 -239 -364 -119 -663 -216 -664 -214
-22 22 56 51 671 255 363 120 662 219 662 220 1 1 -1 -9 -3 -22z m1779 -516
c636 -384 844 -515 846 -530 2 -12 1 -21 -2 -21 -3 0 -390 232 -861 517 -687
415 -853 519 -844 530 6 7 13 13 14 13 2 0 383 -229 847 -509z m-876 412 c-6
-6 -36 9 -36 18 0 5 9 4 20 -3 10 -7 18 -14 16 -15z m-842 -22 c22 -8 85 31
-877 -550 -356 -215 -650 -391 -653 -391 -3 0 -4 9 -2 20 2 15 203 141 753
474 413 250 752 454 755 454 3 1 14 -3 24 -7z m161 -48 c0 -5 -337 -342 -750
-749 -640 -630 -750 -735 -753 -715 -3 18 9 36 45 71 26 26 360 354 741 729
381 376 698 681 705 678 6 -2 12 -8 12 -14z m1376 -612 c343 -338 673 -662
732 -721 88 -86 108 -112 105 -131 -3 -21 -102 73 -698 660 -382 376 -717 705
-743 730 -34 34 -46 52 -41 64 3 10 10 17 14 15 4 -2 289 -279 631 -617z
m-811 568 c10 -18 9 -20 -12 -17 -12 2 -24 11 -26 21 -5 24 25 22 38 -4z m98
9 c17 -17 15 -28 -6 -28 -19 0 -42 18 -42 32 0 12 35 9 48 -4z m-578 -13 c-7
-8 -21 -15 -31 -15 -12 0 -16 5 -13 15 4 8 17 15 31 15 22 0 24 -2 13 -15z
m98 3 c-3 -7 -14 -14 -26 -16 -16 -3 -20 1 -16 12 7 19 48 22 42 4z m60 0 c-7
-19 -38 -22 -38 -4 0 10 9 16 21 16 12 0 19 -5 17 -12z m70 0 c-7 -19 -38 -22
-38 -4 0 10 9 16 21 16 12 0 19 -5 17 -12z m122 -4 c0 -9 -7 -14 -17 -12 -25
5 -28 28 -4 28 12 0 21 -6 21 -16z m70 0 c0 -9 -7 -14 -17 -12 -25 5 -28 28
-4 28 12 0 21 -6 21 -16z m260 -54 c24 -24 26 -67 3 -92 -15 -17 -41 -18 -411
-18 -440 0 -432 -1 -432 66 0 64 -1 64 432 64 375 0 389 -1 408 -20z m-813
-134 c-4 -13 -47 -21 -47 -9 0 5 5 14 11 20 14 14 41 5 36 -11z m847 8 c9 -23
8 -24 -13 -24 -25 0 -38 20 -20 31 20 12 26 11 33 -7z m-709 -14 c-3 -5 -15
-10 -26 -10 -11 0 -17 5 -14 10 3 6 15 10 26 10 11 0 17 -4 14 -10z m90 0 c-3
-5 -13 -10 -21 -10 -8 0 -14 5 -14 10 0 6 9 10 21 10 11 0 17 -4 14 -10z m100
0 c-3 -5 -13 -10 -21 -10 -8 0 -14 5 -14 10 0 6 9 10 21 10 11 0 17 -4 14 -10z
m185 0 c0 -5 -6 -10 -14 -10 -8 0 -18 5 -21 10 -3 6 3 10 14 10 12 0 21 -4 21
-10z m100 0 c0 -5 -6 -10 -14 -10 -8 0 -18 5 -21 10 -3 6 3 10 14 10 12 0 21
-4 21 -10z m95 0 c3 -5 -3 -10 -14 -10 -11 0 -23 5 -26 10 -3 6 3 10 14 10 11
0 23 -4 26 -10z m199 -49 c35 -33 35 -83 1 -116 l-24 -25 -481 0 -482 0 -29
29 c-31 32 -34 45 -19 86 20 53 34 55 542 52 l466 -2 26 -24z m463 -678 c42
-60 43 -63 21 -63 -16 0 -30 11 -43 33 -10 17 -22 34 -26 37 -6 4 -362 504
-383 538 -4 7 -2 19 4 27 10 12 45 -33 197 -248 102 -144 205 -290 230 -324z
m-1504 564 c4 -12 -359 -541 -382 -557 -4 -3 -16 -20 -26 -37 -13 -22 -27 -33
-42 -33 -20 0 -9 19 85 153 60 83 161 227 226 320 65 92 122 167 126 167 4 0
10 -6 13 -13z m927 -74 c-96 -124 -149 -273 -150 -424 0 -43 -2 -47 -27 -52
-16 -3 -29 -4 -30 -3 -2 1 2 62 7 136 13 180 1 220 -65 220 -56 0 -60 -14 -63
-217 l-4 -183 -30 -16 c-17 -9 -34 -12 -39 -7 -4 4 -9 90 -11 189 -3 162 -5
184 -22 203 -19 21 -60 27 -83 13 -26 -16 -31 -61 -25 -205 7 -144 7 -147 -13
-141 -11 3 -29 8 -40 11 -28 8 -35 22 -35 71 0 120 -55 279 -131 379 l-40 53
412 0 411 0 -22 -27z m-847 -161 c-36 -75 -81 -172 -101 -214 -25 -56 -41 -78
-54 -78 -10 0 -18 2 -18 4 0 7 51 118 134 290 63 131 79 156 90 147 12 -10 4
-34 -51 -149z m977 -47 c117 -242 118 -245 93 -245 -15 0 -41 47 -116 204 -53
113 -97 211 -97 219 0 13 9 27 17 27 2 0 48 -92 103 -205z m-871 -105 c-34
-110 -48 -140 -61 -140 -10 0 -18 3 -18 6 0 9 92 298 98 308 3 6 10 0 15 -12
8 -17 0 -54 -34 -162z m735 19 c25 -81 46 -149 46 -153 0 -3 -8 -6 -18 -6 -14
0 -27 27 -60 135 -28 90 -40 144 -36 161 4 14 10 22 14 17 4 -4 29 -74 54
-154z m-243 -48 c17 -59 1 -151 -28 -162 l-23 -8 0 115 c0 111 1 114 20 104
10 -6 25 -28 31 -49z m-219 -61 c10 -19 18 -54 18 -77 l0 -42 -30 10 c-26 10
-30 16 -30 49 0 21 -3 52 -6 70 -6 28 -4 32 12 28 10 -1 27 -19 36 -38z m-201
-85 c47 -8 123 -27 170 -42 l84 -28 -4 -415 c-2 -228 -4 -416 -6 -418 -1 -1
-40 16 -87 38 -93 43 -226 81 -353 101 -167 26 -518 14 -730 -26 -38 -8 -71
-12 -73 -10 -2 1 77 179 175 394 l178 391 51 0 c28 0 76 5 105 11 136 27 334
29 490 4z m1022 -1 c48 -8 108 -14 135 -14 l47 0 178 -391 c98 -215 177 -393
175 -394 -2 -2 -35 2 -73 10 -212 40 -563 52 -730 26 -127 -20 -260 -58 -353
-101 -47 -22 -86 -39 -87 -38 -2 2 -4 190 -6 418 l-4 415 80 26 c189 64 417
79 638 43z m-1944 -539 l-221 -435 1422 0 1422 0 -221 436 c-122 240 -216 434
-210 432 5 -2 115 -208 242 -458 l233 -455 -733 -3 c-403 -1 -1063 -1 -1466 0
l-733 3 234 458 c128 251 238 457 243 457 5 0 -91 -196 -212 -435z m68 263
c-29 -57 -150 -239 -268 -406 -179 -253 -215 -299 -223 -283 -7 16 41 90 264
405 150 212 275 386 277 386 3 0 -20 -46 -50 -102z m2497 -288 c161 -227 266
-384 266 -398 0 -13 -4 -22 -10 -20 -22 7 -437 610 -488 708 -30 58 -50 101
-44 95 6 -5 130 -179 276 -385z m-1864 -235 c128 -18 253 -53 342 -94 l63 -29
-102 -1 c-57 -1 -103 3 -103 8 0 16 -134 41 -288 52 -195 15 -642 -9 -642 -34
0 -6 26 -7 73 -3 243 24 512 32 502 16 -3 -5 -24 -10 -45 -10 -21 0 -67 -9
-102 -20 -55 -17 -92 -20 -300 -20 -131 0 -238 3 -238 8 1 4 11 27 23 52 20
42 26 46 72 53 233 39 553 48 745 22z m1585 0 c216 -27 207 -24 232 -75 12
-25 22 -48 23 -52 0 -5 -107 -8 -237 -8 -209 0 -246 3 -301 20 -35 11 -80 20
-100 20 -21 0 -44 5 -52 10 -26 17 292 7 513 -16 43 -4 67 -3 67 3 0 25 -447
49 -643 34 -154 -12 -276 -34 -287 -52 -4 -6 -47 -9 -106 -7 l-99 3 75 32 c91
38 215 71 330 88 122 18 441 18 585 0z m-1465 -109 l55 -14 -50 -1 c-28 -1
-66 4 -85 10 -19 5 -64 14 -100 19 -59 8 -57 9 30 4 52 -2 120 -11 150 -18z
m940 13 c-36 -4 -81 -13 -100 -18 -35 -11 -138 -15 -128 -6 9 10 175 33 233
33 l60 -1 -65 -8z m-1052 -34 c3 -3 -64 -5 -148 -5 -84 0 -151 3 -147 6 18 19
276 18 295 -1z m1280 1 c3 -3 -64 -6 -148 -6 -84 0 -151 3 -148 6 19 19 277
19 296 0z m-1981 -285 c-62 -128 -74 -148 -86 -136 -12 12 -5 33 50 149 53
112 68 135 86 136 20 0 16 -12 -50 -149z m441 137 c-3 -7 -45 -138 -93 -290
-49 -153 -92 -278 -96 -278 -23 0 -8 69 69 310 73 229 89 270 105 270 11 0 17
-5 15 -12z m389 -15 c-3 -16 -28 -179 -57 -363 -28 -184 -54 -341 -56 -349 -4
-13 -7 -13 -19 0 -12 12 -7 62 43 377 51 329 58 362 76 362 15 0 17 -5 13 -27z
m267 -55 c5 -72 36 -768 36 -808 0 -8 -9 4 -20 25 -18 35 -24 87 -45 390 -13
193 -27 378 -30 413 l-6 62 30 0 29 0 6 -82z m36 -115 c0 -108 -2 -194 -4
-192 -9 11 -15 389 -6 389 6 0 10 -72 10 -197z m103 -330 c-3 -291 -7 -530 -9
-532 -6 -6 -63 -5 -70 1 -3 3 -2 242 2 532 l7 526 38 0 38 0 -6 -527z m43 485
c-3 -24 -8 -122 -12 -218 -4 -96 -9 -169 -12 -161 -9 26 10 421 20 421 6 0 8
-17 4 -42z m74 30 c0 -7 -13 -193 -29 -413 -25 -355 -31 -405 -50 -445 l-22
-45 5 70 c3 39 15 239 27 445 11 206 23 381 25 388 2 6 13 12 24 12 11 0 20
-6 20 -12z m293 -350 c50 -318 55 -364 42 -377 -12 -13 -15 -13 -19 0 -4 13
-116 719 -116 733 0 3 8 6 18 6 16 0 24 -42 75 -362z m420 90 c79 -249 94
-318 68 -318 -3 0 -46 127 -95 283 -50 155 -92 288 -94 295 -2 7 4 12 15 12
17 0 32 -40 106 -272z m355 139 c40 -84 61 -139 57 -150 -4 -9 -10 -17 -14
-17 -3 0 -38 68 -78 150 -66 138 -70 150 -50 150 18 -1 33 -24 85 -133z
m-2599 -370 c1 -5 -3 -5 -9 -2 -5 3 -10 16 -9 28 0 21 1 21 9 2 5 -11 9 -24 9
-28z m2762 0 c-8 -8 -11 -3 -11 19 1 25 2 27 11 11 8 -14 8 -22 0 -30z m-2851
-71 c0 -2 -7 -7 -16 -10 -8 -3 -12 -2 -9 4 6 10 25 14 25 6z m300 -230 c0 -3
-4 -8 -10 -11 -5 -3 -10 -1 -10 4 0 6 5 11 10 11 6 0 10 -2 10 -4z m1217 -248
c-3 -7 -5 -2 -5 12 0 14 2 19 5 13 2 -7 2 -19 0 -25z m33 -135 c0 -23 -29 -72
-49 -83 -53 -28 -121 11 -121 68 l0 29 85 1 c68 0 85 -3 85 -15z"/>
<path d="M3711 5847 c-7 -10 -16 -36 -18 -60 -5 -38 -1 -47 36 -92 39 -47 41
-52 35 -97 -6 -44 -5 -48 14 -48 26 0 62 57 62 97 0 31 -23 61 -74 98 -21 15
-29 31 -34 69 -6 43 -9 47 -21 33z"/>
<path d="M3602 5686 c-70 -78 -75 -129 -13 -161 43 -22 65 -58 52 -84 -18 -33
-13 -51 14 -51 32 0 75 41 75 71 0 15 -20 41 -56 74 -43 40 -55 58 -52 76 2
18 10 24 28 25 43 2 44 3 21 28 -17 18 -22 32 -17 50 3 15 4 26 2 26 -2 0 -26
-24 -54 -54z"/>
<path d="M3782 5228 c-19 -19 -15 -32 18 -61 17 -15 30 -36 30 -47 0 -13 7
-20 20 -20 26 0 26 26 0 65 -11 17 -20 40 -20 53 0 24 -28 30 -48 10z"/>
<path d="M3702 5155 c-20 -45 -14 -66 38 -121 28 -29 50 -59 51 -66 0 -7 2
-26 2 -43 3 -42 31 -45 52 -5 23 44 13 72 -43 132 -38 41 -47 57 -47 87 0 29
-4 37 -21 39 -14 2 -24 -5 -32 -23z"/>
<path d="M2740 3335 c0 -98 1 -105 20 -105 17 0 20 7 20 45 0 25 5 45 10 45
12 0 43 -30 65 -64 11 -16 27 -26 41 -26 30 0 30 2 -2 50 -25 38 -26 41 -10
58 9 10 16 30 16 45 0 38 -34 57 -102 57 l-58 0 0 -105z m117 49 c7 -20 -13
-34 -49 -34 -23 0 -28 4 -28 25 0 22 4 25 35 25 23 0 38 -6 42 -16z"/>
<path d="M3001 3418 c-5 -13 -23 -58 -40 -101 -17 -43 -31 -80 -31 -82 0 -3 9
-5 20 -5 12 0 25 10 32 25 9 20 18 25 48 25 30 0 39 -5 48 -25 11 -23 52 -36
52 -17 0 5 -17 51 -38 103 -30 74 -43 95 -60 97 -15 2 -25 -4 -31 -20z m48
-90 c1 -5 -8 -8 -19 -8 -23 0 -24 4 -8 33 11 21 11 21 19 2 4 -11 8 -23 8 -27z"/>
<path d="M2601 3164 c-28 -36 -26 -70 5 -100 18 -19 31 -24 50 -20 18 5 24 2
24 -9 0 -20 -28 -31 -43 -16 -16 16 -47 14 -47 -3 0 -25 30 -46 64 -46 49 0
69 29 74 103 3 52 0 66 -18 90 -29 37 -80 38 -109 1z m74 -49 c0 -23 -4 -30
-20 -30 -21 0 -31 25 -21 51 11 28 41 12 41 -21z"/>
<path d="M2786 3168 c-23 -32 -20 -48 9 -48 16 0 25 6 25 16 0 18 41 16 47 -2
2 -7 -18 -37 -45 -68 -28 -31 -52 -66 -55 -77 -5 -19 -1 -20 71 -17 69 3 77 5
77 23 0 16 -8 21 -38 25 l-38 5 35 34 c62 60 44 131 -34 131 -29 0 -43 -6 -54
-22z"/>
<path d="M2970 3170 c-45 -45 -2 -140 57 -125 21 5 24 3 19 -10 -3 -9 -6 -19
-6 -21 0 -2 -9 -4 -20 -4 -11 0 -20 5 -20 10 0 6 -9 10 -20 10 -13 0 -20 -7
-20 -18 0 -27 20 -42 57 -42 37 0 69 26 79 65 10 40 -2 114 -21 135 -24 26
-79 26 -105 0z m75 -39 c8 -26 -5 -53 -24 -49 -10 2 -17 15 -19 36 -3 26 0 32
17 32 11 0 22 -8 26 -19z"/>
<path d="M3150 3163 c-38 -49 -10 -116 50 -116 19 0 30 -5 30 -14 0 -19 -29
-28 -43 -14 -16 16 -47 14 -47 -3 0 -25 30 -46 65 -46 50 0 75 37 75 110 0 73
-25 110 -75 110 -25 0 -39 -7 -55 -27z m75 -48 c0 -23 -4 -30 -20 -30 -21 0
-31 25 -21 51 11 28 41 12 41 -21z"/>
<path d="M3750 3201 c0 -74 3 -91 15 -91 11 0 15 13 16 58 l1 57 13 -46 c24
-88 45 -93 67 -16 l16 52 1 -53 c1 -45 4 -53 19 -50 15 3 17 15 17 88 l0 85
-27 3 c-25 3 -28 -1 -39 -42 -6 -25 -15 -46 -19 -46 -4 0 -11 19 -16 43 -8 36
-13 42 -36 45 l-28 3 0 -90z"/>
<path d="M3960 3201 c0 -74 3 -91 15 -91 11 0 15 13 16 58 l1 57 15 -57 c11
-43 20 -58 33 -58 13 0 22 15 33 58 l15 57 1 -57 c1 -45 5 -58 16 -58 12 0 15
17 15 91 l0 90 -27 -3 c-24 -3 -29 -9 -37 -45 -5 -24 -12 -43 -16 -43 -4 0
-11 19 -16 43 -8 36 -13 42 -36 45 l-28 3 0 -90z"/>
<path d="M4164 3277 c-3 -8 -4 -47 -2 -88 2 -61 6 -74 21 -77 15 -3 17 6 17
87 0 75 -3 91 -15 91 -9 0 -18 -6 -21 -13z"/>
<path d="M4230 3283 c0 -5 13 -44 29 -88 21 -60 33 -81 48 -83 20 -3 21 -1 81
166 3 10 -2 13 -18 10 -19 -2 -26 -14 -38 -55 -8 -29 -18 -53 -21 -53 -4 0
-15 25 -25 55 -13 42 -22 55 -37 55 -10 0 -19 -3 -19 -7z"/>
<path d="M2500 2755 c-118 -14 -221 -32 -228 -40 -14 -13 12 -16 59 -6 259 56
648 52 864 -8 68 -19 95 -19 65 -1 -23 14 -175 48 -270 60 -112 13 -359 11
-490 -5z"/>
<path d="M4000 2759 c-80 -10 -240 -46 -260 -59 -29 -18 -3 -18 65 1 222 62
601 63 893 3 19 -4 32 -3 32 4 0 11 -131 37 -272 52 -112 12 -362 11 -458 -1z"/>
<path d="M1758 5850 c-98 -72 -125 -100 -99 -100 6 0 13 5 16 10 3 6 10 10 16
10 12 0 189 -239 189 -256 0 -6 -7 -17 -15 -24 -8 -7 -13 -15 -11 -19 3 -4 -9
-12 -25 -18 -29 -11 -31 -10 -134 104 -101 112 -105 117 -90 139 28 43 -1 33
-61 -21 -56 -50 -69 -79 -26 -56 18 10 31 0 112 -88 117 -126 125 -138 110
-156 -28 -34 -77 -46 -161 -39 l-81 7 6 39 c12 73 -40 127 -110 114 -46 -9
-215 -186 -177 -186 3 0 14 7 24 16 16 14 23 10 100 -58 45 -40 97 -86 116
-101 34 -29 42 -54 22 -74 -7 -7 -7 -13 -1 -17 10 -6 112 106 112 123 0 7 -10
5 -25 -5 -24 -15 -26 -15 -75 27 -79 67 -66 77 76 60 l97 -12 51 50 c109 104
175 160 278 235 l107 78 -15 46 c-7 26 -14 48 -14 50 0 1 -4 2 -10 2 -5 0 -10
-20 -10 -45 0 -42 -3 -47 -51 -85 -28 -22 -54 -40 -58 -40 -5 0 -27 26 -49 59
l-42 59 40 26 c45 29 53 31 80 14 36 -23 32 0 -9 56 -23 31 -44 56 -47 56 -3
0 -4 -14 -2 -31 2 -26 -4 -37 -38 -65 l-42 -35 -36 49 c-20 28 -36 54 -36 58
1 11 92 74 108 74 7 0 21 -5 32 -12 10 -7 22 -9 25 -6 9 8 -35 68 -49 68 -6 0
-59 -36 -118 -80z m-331 -432 c28 -26 30 -73 5 -106 l-18 -23 -54 49 -54 49
26 26 c33 33 64 34 95 5z"/>
<path d="M5398 5724 c-4 -3 0 -17 8 -29 15 -23 13 -27 -80 -124 l-96 -100 0
-52 c0 -49 3 -55 49 -100 45 -46 52 -49 99 -49 43 0 57 5 99 39 27 21 66 58
86 81 51 60 74 75 92 60 8 -7 19 -10 25 -8 6 2 -12 25 -39 52 -50 49 -75 58
-49 17 12 -20 6 -28 -83 -116 -111 -110 -133 -117 -194 -64 -28 25 -35 38 -35
67 0 31 11 46 95 131 88 89 96 95 116 83 44 -28 31 1 -27 59 -33 33 -63 57
-66 53z"/>
<path d="M5705 5404 c23 -53 15 -65 -108 -158 -115 -87 -118 -89 -137 -71 -32
29 -36 9 -6 -32 60 -86 70 -92 61 -40 -5 31 -2 35 84 100 49 37 92 67 94 67 2
0 -15 -79 -38 -175 -23 -97 -39 -178 -34 -181 4 -2 65 39 136 92 70 53 134 99
141 101 7 3 19 0 27 -7 8 -6 19 -10 25 -8 14 4 -61 107 -78 108 -10 0 -10 -5
-2 -21 6 -11 10 -24 8 -29 -4 -11 -171 -140 -176 -136 -1 2 15 75 37 162 l40
159 -28 40 c-31 43 -60 61 -46 29z"/>
<path d="M1120 5178 c-120 -62 -122 -243 -3 -318 105 -67 221 -41 273 61 83
162 -106 342 -270 257z m128 -59 c115 -57 153 -140 96 -208 -21 -25 -33 -31
-67 -31 -80 0 -197 83 -212 149 -12 55 42 120 101 121 11 0 48 -14 82 -31z"/>
<path d="M5975 5021 c6 -28 3 -31 -116 -101 -143 -85 -155 -89 -174 -64 -7 11
-16 16 -20 12 -7 -7 60 -134 76 -144 16 -10 21 3 10 24 -14 26 -4 33 139 116
121 69 137 75 146 51 7 -18 27 -20 22 -2 -6 24 -73 137 -81 137 -5 0 -6 -13
-2 -29z"/>
<path d="M6080 4845 c0 -18 -27 -55 -92 -127 -140 -153 -168 -185 -168 -193 0
-4 83 -4 185 0 165 6 188 5 211 -10 14 -9 28 -14 31 -11 7 7 -39 116 -49 116
-4 0 -8 -11 -8 -25 0 -31 -13 -34 -156 -37 l-111 -3 86 93 c75 81 121 112 121
82 0 -5 5 -10 10 -10 6 0 10 6 10 13 0 15 -57 137 -65 137 -3 0 -5 -11 -5 -25z"/>
<path d="M834 4706 c4 -15 0 -28 -10 -37 -48 -40 -58 -122 -20 -166 20 -23 33
-28 68 -28 36 0 55 9 117 53 75 52 107 62 129 40 15 -15 16 -63 2 -89 -16 -29
-67 -51 -101 -44 -50 11 -33 -14 26 -41 66 -29 67 -29 64 -6 -2 9 10 37 26 61
62 92 27 196 -65 196 -30 0 -52 -10 -97 -43 -32 -23 -73 -50 -92 -59 -32 -17
-33 -17 -52 6 -26 31 -24 45 10 83 26 29 35 33 75 31 43 -1 61 9 34 20 -7 3
-37 15 -67 26 l-53 22 6 -25z"/>
<path d="M6254 4433 c4 -12 1 -25 -6 -30 -16 -13 -259 -83 -287 -83 -11 0 -22
9 -26 20 -6 19 -25 28 -25 13 0 -5 17 -69 38 -143 l39 -135 51 -3 c60 -4 68
11 17 28 -19 6 -40 20 -46 31 -18 34 -39 113 -31 120 9 8 133 42 136 37 2 -2
9 -25 16 -52 13 -47 12 -49 -11 -67 -36 -27 -17 -32 50 -13 65 18 77 31 34 36
-22 2 -29 12 -44 55 l-18 53 62 18 62 19 12 -26 c6 -14 15 -46 19 -70 6 -39 4
-46 -17 -62 -33 -24 -19 -33 30 -18 34 10 40 15 35 33 -30 118 -73 251 -83
254 -9 3 -11 -2 -7 -15z"/>
<path d="M765 4371 c-155 -71 -130 -297 38 -342 98 -26 190 12 228 95 73 161
-101 323 -266 247z m142 -67 c91 -30 132 -98 99 -161 -21 -41 -64 -57 -135
-50 -132 12 -212 95 -167 176 28 51 111 66 203 35z"/>
<path d="M6350 4066 c0 -30 -4 -32 -168 -54 -131 -18 -162 -16 -162 13 0 8 -4
15 -10 15 -12 0 -12 -3 1 -94 6 -42 15 -73 20 -70 5 3 9 14 9 25 0 22 24 33
92 42 70 10 67 -10 -18 -94 -75 -75 -80 -86 -68 -148 8 -40 20 -40 28 0 3 19
30 56 68 95 l61 64 18 -29 c32 -52 108 -59 148 -14 23 26 23 32 18 128 -7 107
-14 145 -28 145 -5 0 -9 -11 -9 -24z m8 -134 c5 -54 -43 -91 -93 -72 -28 10
-62 77 -48 91 9 9 64 17 108 15 26 -1 30 -5 33 -34z"/>
<path d="M958 3954 c-7 -15 -42 -43 -87 -69 l-75 -44 -17 39 c-23 51 -72 69
-122 45 -19 -9 -40 -28 -46 -42 -15 -32 -34 -171 -29 -209 l4 -29 12 28 c14
32 9 32 177 11 135 -16 155 -24 155 -55 0 -11 4 -19 9 -19 10 0 26 141 18 162
-3 8 -9 2 -16 -15 -11 -29 -11 -29 -79 -22 -37 4 -69 9 -71 11 -13 11 19 38
94 79 48 26 88 53 90 59 2 6 6 30 9 54 7 48 -8 57 -26 16z m-217 -111 c20 -17
33 -73 21 -85 -5 -5 -39 -6 -75 -2 -62 6 -67 8 -67 31 0 70 69 102 121 56z"/>
<path d="M6285 3648 c-26 -15 -37 -30 -80 -105 -43 -75 -66 -91 -101 -69 -54
36 -33 131 34 150 51 14 37 26 -33 26 -36 0 -65 -4 -65 -9 0 -5 5 -11 11 -13
7 -2 6 -17 -2 -49 -25 -93 17 -169 95 -169 57 0 77 17 125 105 42 76 67 100
96 89 19 -8 35 -36 35 -63 0 -26 -46 -79 -72 -83 -12 -2 -23 -9 -26 -15 -3
-10 14 -13 62 -13 52 0 66 3 66 15 0 8 -4 15 -10 15 -6 0 -6 9 0 26 23 59 3
141 -39 164 -26 13 -71 12 -96 -2z"/>
<path d="M740 3535 c0 -70 11 -99 22 -57 5 20 50 32 116 32 35 0 52 -25 52
-78 0 -126 -226 -182 -308 -77 -44 56 -16 160 48 180 11 4 20 11 20 17 0 6
-22 8 -62 3 -71 -8 -80 -12 -56 -26 14 -8 15 -15 8 -35 -30 -78 3 -183 72
-230 37 -26 50 -29 118 -29 68 0 80 3 113 28 70 53 93 146 63 250 l-17 57 -80
0 c-72 0 -81 2 -86 20 -12 44 -23 16 -23 -55z"/>
<path d="M6046 3348 c-16 -74 -6 -183 11 -119 3 11 10 21 16 24 17 6 292 -19
306 -27 6 -4 11 -16 11 -27 0 -10 5 -19 10 -19 6 0 10 12 10 28 0 15 3 51 6
80 4 33 3 52 -3 52 -6 0 -13 -10 -16 -21 -6 -21 -9 -21 -137 -14 -159 8 -184
14 -188 43 -4 29 -20 28 -26 0z"/>
<path d="M860 3192 c0 -5 14 -15 31 -22 42 -18 61 -51 63 -112 l1 -52 -65 -12
c-36 -7 -67 -11 -69 -8 -2 2 -7 22 -11 46 -9 46 2 78 25 78 8 0 15 5 15 11 0
11 -93 5 -127 -8 -22 -9 -15 -23 12 -23 27 0 37 -16 49 -81 l6 -36 -65 -9
c-73 -11 -70 -14 -80 68 -7 52 -5 56 21 77 15 12 25 24 22 27 -9 9 -79 -8 -84
-20 -7 -19 41 -269 53 -273 7 -3 9 3 6 16 -7 28 14 36 171 62 l139 23 15 -22
c8 -12 18 -22 22 -22 6 0 -37 280 -44 286 -8 8 -106 14 -106 6z"/>
<path d="M6310 3133 c0 -4 12 -17 26 -28 24 -19 26 -26 20 -58 -4 -20 -13 -37
-20 -37 -23 0 -275 48 -286 55 -5 3 -10 17 -10 31 0 13 -4 24 -9 24 -10 0 -42
-162 -34 -170 3 -3 8 0 10 6 2 6 9 19 16 28 11 15 23 14 162 -11 l150 -28 -3
-30 c-5 -36 -28 -65 -53 -65 -27 0 -32 -17 -6 -24 24 -6 77 -8 77 -3 0 2 11
64 25 138 14 74 25 139 25 146 0 7 -17 17 -37 22 -45 13 -53 13 -53 4z"/>
<path d="M875 2799 c-82 -27 -158 -49 -167 -49 -9 0 -20 9 -23 21 -4 12 -11
17 -16 12 -11 -11 29 -135 41 -128 4 3 6 14 3 24 -6 24 15 36 130 72 l87 27
-22 -36 c-12 -21 -43 -68 -68 -107 -95 -144 -92 -136 -74 -189 18 -51 34 -60
34 -18 0 15 4 33 8 39 8 13 247 93 276 93 9 0 21 -10 25 -22 7 -18 10 -20 15
-8 8 19 -26 123 -39 118 -5 -2 -8 -10 -7 -19 2 -9 -3 -21 -10 -26 -14 -12
-209 -76 -214 -71 -1 2 40 69 92 150 88 138 105 169 87 167 -5 0 -75 -23 -158
-50z"/>
<path d="M5918 2690 c-26 -78 -24 -100 3 -60 14 20 15 20 73 3 53 -15 64 -23
120 -91 70 -85 90 -118 82 -138 -3 -8 1 -14 8 -14 14 0 53 116 42 127 -3 4
-13 -2 -21 -13 -15 -18 -17 -18 -51 21 -20 22 -44 52 -55 66 l-19 27 65 16
c90 23 105 21 105 -9 0 -46 16 -26 40 50 25 80 22 99 -9 71 -11 -10 -66 -30
-123 -46 l-103 -27 -57 19 c-53 18 -58 22 -58 49 0 50 -15 32 -42 -51z"/>
<path d="M1487 1726 c-72 -26 -107 -76 -107 -151 0 -96 54 -155 147 -163 89
-7 151 34 173 118 34 124 -92 240 -213 196z"/>
<path d="M5429 1730 c-102 -30 -153 -157 -96 -241 35 -52 82 -79 139 -79 148
0 221 161 122 269 -23 26 -48 42 -79 50 -49 12 -50 12 -86 1z"/>
<path d="M1965 1410 c-3 -5 1 -13 9 -16 9 -3 16 -14 16 -24 0 -18 -144 -250
-163 -262 -6 -4 -19 -2 -28 3 -11 5 -20 5 -23 0 -6 -9 116 -91 135 -91 14 0
11 12 -8 26 -17 12 -17 15 6 56 44 83 44 82 86 53 80 -54 175 -15 175 73 0 46
-23 80 -83 120 -85 57 -115 73 -122 62z m140 -134 c18 -50 -41 -114 -88 -97
-41 15 -42 34 -2 94 36 54 39 57 59 44 12 -8 25 -26 31 -41z"/>
<path d="M4887 1380 c-3 -12 -14 -20 -27 -20 -29 0 -76 -26 -94 -52 -27 -38
-20 -95 13 -129 29 -28 32 -29 130 -29 108 0 131 -10 131 -55 0 -55 -106 -88
-145 -45 -17 18 -45 28 -45 15 0 -3 16 -32 36 -63 30 -46 38 -53 43 -39 4 10
31 28 61 40 83 34 118 97 88 162 -19 42 -56 55 -158 55 -50 0 -100 5 -111 10
-40 22 -9 85 46 96 22 4 40 -1 69 -21 21 -14 41 -24 43 -21 6 6 -59 116 -68
116 -4 0 -9 -9 -12 -20z"/>
<path d="M2216 1252 c-4 -3 3 -14 15 -23 l23 -17 -59 -128 c-68 -152 -72 -157
-102 -151 -48 9 -20 -20 49 -51 75 -33 92 -34 65 -4 -22 24 -22 29 8 96 l25
56 57 -26 c32 -14 64 -28 71 -31 16 -7 16 -6 -14 -74 -26 -58 -32 -63 -66 -60
-39 4 -14 -18 53 -48 68 -30 104 -34 66 -7 -9 7 -17 20 -17 28 0 21 116 272
128 276 6 2 29 -2 51 -8 28 -7 41 -16 41 -28 0 -9 -21 -79 -46 -154 -45 -135
-46 -138 -75 -138 -50 0 -32 -16 46 -40 79 -25 102 -22 67 7 l-22 18 44 130
c59 175 55 168 83 162 14 -2 22 0 20 6 -3 10 -93 45 -132 51 -11 2 -54 19 -95
38 -76 36 -112 40 -70 8 l23 -18 -27 -65 -28 -65 -69 32 c-37 17 -68 36 -69
41 0 6 11 33 24 62 21 45 29 52 58 55 l33 3 -53 28 c-70 37 -98 47 -106 39z"/>
<path d="M4530 1184 c-63 -30 -148 -67 -187 -81 -40 -14 -70 -29 -68 -33 3 -5
13 -6 23 -3 10 2 23 -2 29 -9 11 -14 73 -208 67 -208 -3 0 -66 41 -140 91
l-136 91 -42 -11 c-34 -9 -200 -41 -212 -41 -2 0 -4 -4 -4 -10 0 -5 11 -10 25
-10 32 0 39 -16 65 -156 25 -140 25 -161 0 -169 -28 -9 -25 -28 3 -22 12 3 50
11 84 18 61 11 77 29 27 29 -13 0 -24 1 -24 3 0 1 -13 70 -30 152 -26 131 -28
151 -15 161 20 15 87 9 100 -9 6 -8 28 -73 49 -143 l39 -128 -23 -18 c-13 -10
-21 -21 -18 -24 10 -9 128 29 128 41 0 8 -9 10 -24 8 -23 -5 -26 1 -61 107
-20 62 -34 114 -32 116 2 2 69 -40 150 -92 81 -53 151 -94 155 -92 5 1 -13 74
-40 162 -27 87 -47 165 -44 173 7 16 67 44 79 36 8 -5 106 -205 128 -261 7
-17 4 -26 -11 -39 -44 -38 -2 -28 118 29 70 33 129 61 131 63 6 7 -11 105 -19
105 -4 0 -10 -18 -14 -39 -6 -42 -27 -61 -98 -94 l-38 -17 -30 60 c-16 33 -30
63 -30 68 0 5 21 19 48 30 l47 21 22 -21 c34 -32 36 -17 7 51 -29 67 -44 77
-44 31 0 -25 -7 -33 -48 -54 l-49 -25 -26 55 c-15 30 -27 58 -27 63 0 10 95
51 118 51 9 0 24 -7 34 -17 10 -9 21 -13 25 -10 8 9 -29 77 -42 77 -5 -1 -62
-26 -125 -56z"/>
<path d="M2740 1031 c0 -5 9 -11 20 -14 26 -7 25 -17 -9 -170 -31 -136 -43
-161 -72 -152 -11 4 -19 2 -19 -4 0 -5 8 -12 18 -15 33 -10 245 -56 257 -56
15 0 70 88 61 97 -3 3 -22 -9 -42 -27 -32 -27 -42 -31 -73 -25 -72 12 -102 26
-97 43 2 10 14 62 26 117 34 158 37 165 71 165 52 0 31 17 -42 34 -82 18 -99
20 -99 7z"/>
<path d="M3060 960 c0 -5 9 -10 19 -10 10 0 21 -6 23 -12 5 -14 -18 -284 -26
-305 -3 -7 -15 -13 -26 -13 -11 0 -20 -4 -20 -10 0 -5 4 -10 8 -10 18 0 228
-21 253 -25 19 -3 28 1 32 13 3 9 12 34 21 55 13 30 14 37 3 37 -8 0 -20 -11
-27 -25 -7 -13 -25 -28 -39 -33 -35 -11 -128 -3 -134 11 -2 7 2 75 9 151 14
141 19 156 57 156 39 0 13 18 -35 24 -77 9 -118 7 -118 -4z"/>
<path d="M3608 953 c-46 -4 -69 -23 -28 -23 29 0 37 -23 49 -151 16 -162 15
-176 -9 -182 -33 -9 -23 -26 13 -22 17 3 53 7 80 10 49 6 66 25 22 25 -25 0
-29 11 -38 103 -3 36 -2 37 33 37 48 0 102 29 118 63 18 38 8 88 -24 118 -21
20 -36 24 -97 25 -40 1 -93 -1 -119 -3z m135 -32 c16 -6 29 -23 37 -46 11 -33
10 -40 -7 -64 -13 -16 -32 -27 -51 -29 l-30 -3 -7 65 c-10 86 0 99 58 77z"/>
<path d="M3390 942 c0 -4 10 -12 23 -17 21 -10 22 -15 25 -167 l3 -157 -26 -7
c-51 -13 -23 -24 60 -24 82 0 112 13 61 26 -23 5 -24 10 -31 117 -10 159 -5
200 23 212 40 18 23 25 -58 25 -44 0 -80 -3 -80 -8z"/>
</g>
</svg>
